# xmcd CD database file
# Copyright (C) 1993-1998 Ti Kan
#
# Track frame offsets:
#  150
#  15390
#  28640
#  46065
#  65575
#  80752
#  94365
#  110057
#  122510
#  137937
#  152410
#  168727
#
# Disc length: 2466 seconds
#
# Revision: 1
# Processed by: cddbd v1.4b41PL1 Copyright (c) Steve Scherf et al.
# Submitted via: CDWizzard Release:4.30
#
DISCID=9d09a00c
DTITLE=Barnburners - Where's The Fire
DYEAR=1900
DGENRE=
TTITLE0=Where's The Fire
TTITLE1=Never Gonna Be Your Fool Again
TTITLE2=Mean 'Ol Moon
TTITLE3=Rock Till We Drop
TTITLE4=I'd Do It All Over Again
TTITLE5=Quicksand
TTITLE6=Tell Me I'm Not Dreamin'
TTITLE7=A Thing Of The Past
TTITLE8=Someone's Been Sleeping In My Bed
TTITLE9=True Destination
TTITLE10=Never Say Never
TTITLE11=Mistaken Identity
EXTD=
EXTT0=
EXTT1=
EXTT2=
EXTT3=
EXTT4=
EXTT5=
EXTT6=
EXTT7=
EXTT8=
EXTT9=
EXTT10=
EXTT11=
PLAYORDER=
